<?xml version="1.0" standalone="no"?>
<svg xmlns:xlink="http://www.w3.org/1999/xlink" id="wave" style="transform:rotate(180deg); transition: 0.3s" viewBox="0 0 1440 110" version="1.1" xmlns="http://www.w3.org/2000/svg"><defs><linearGradient id="sw-gradient-0" x1="0" x2="0" y1="1" y2="0"><stop stop-color="rgba(255, 255, 255, 1)" offset="0%"/><stop stop-color="rgba(255, 255, 255, 1)" offset="100%"/></linearGradient></defs><path style="transform:translate(0, 0px); opacity:1" fill="url(#sw-gradient-0)" d="M0,55L26.7,49.5C53.3,44,107,33,160,40.3C213.3,48,267,73,320,82.5C373.3,92,427,84,480,75.2C533.3,66,587,55,640,49.5C693.3,44,747,44,800,38.5C853.3,33,907,22,960,27.5C1013.3,33,1067,55,1120,66C1173.3,77,1227,77,1280,75.2C1333.3,73,1387,70,1440,56.8C1493.3,44,1547,22,1600,16.5C1653.3,11,1707,22,1760,33C1813.3,44,1867,55,1920,49.5C1973.3,44,2027,22,2080,23.8C2133.3,26,2187,51,2240,64.2C2293.3,77,2347,77,2400,64.2C2453.3,51,2507,26,2560,27.5C2613.3,29,2667,59,2720,60.5C2773.3,62,2827,37,2880,33C2933.3,29,2987,48,3040,51.3C3093.3,55,3147,44,3200,47.7C3253.3,51,3307,70,3360,75.2C3413.3,81,3467,73,3520,64.2C3573.3,55,3627,44,3680,40.3C3733.3,37,3787,40,3813,42.2L3840,44L3840,110L3813.3,110C3786.7,110,3733,110,3680,110C3626.7,110,3573,110,3520,110C3466.7,110,3413,110,3360,110C3306.7,110,3253,110,3200,110C3146.7,110,3093,110,3040,110C2986.7,110,2933,110,2880,110C2826.7,110,2773,110,2720,110C2666.7,110,2613,110,2560,110C2506.7,110,2453,110,2400,110C2346.7,110,2293,110,2240,110C2186.7,110,2133,110,2080,110C2026.7,110,1973,110,1920,110C1866.7,110,1813,110,1760,110C1706.7,110,1653,110,1600,110C1546.7,110,1493,110,1440,110C1386.7,110,1333,110,1280,110C1226.7,110,1173,110,1120,110C1066.7,110,1013,110,960,110C906.7,110,853,110,800,110C746.7,110,693,110,640,110C586.7,110,533,110,480,110C426.7,110,373,110,320,110C266.7,110,213,110,160,110C106.7,110,53,110,27,110L0,110Z"/></svg>