<?xml version="1.0" encoding="UTF-8" standalone="no"?>
<!DOCTYPE svg PUBLIC "-//W3C//DTD SVG 1.1//EN" "http://www.w3.org/Graphics/SVG/1.1/DTD/svg11.dtd">
<svg width="100%" height="100%" viewBox="0 0 29 29" version="1.1" xmlns="http://www.w3.org/2000/svg" xmlns:xlink="http://www.w3.org/1999/xlink" xml:space="preserve" xmlns:serif="http://www.serif.com/" style="fill-rule:evenodd;clip-rule:evenodd;stroke-linejoin:round;stroke-miterlimit:2;">
    <g transform="matrix(1.29273,0,0,1.29273,-4.14255,-0.41332)">
        <g>
            <g transform="matrix(1.02747,0,0,0.991892,-0.148261,0.038768)">
                <path d="M11.196,6.35C11.149,6.335 10.843,6.242 10.694,6.205C9.568,5.932 8.523,6.615 7.77,7.426C6.746,8.529 6.609,10.435 6.762,11.869C7.004,14.148 8.698,15.82 10.571,16.99C11.085,17.311 11.617,17.585 12.159,17.856C12.606,18.08 13.058,18.25 13.45,18.571C13.72,18.792 14.108,19.176 14.326,19.567C14.507,19.894 14.596,20.237 14.596,20.561C14.596,21.314 14.005,21.925 13.278,21.925C12.66,21.925 12.141,21.484 11.999,20.889C11.945,20.833 11.86,20.748 11.817,20.713C11.578,20.518 11.286,20.451 11.013,20.314C10.398,20.007 9.794,19.693 9.209,19.327C6.638,17.72 4.476,15.298 4.142,12.169C3.912,10.01 4.329,7.194 5.871,5.534C7.246,4.053 9.242,3.048 11.297,3.548C11.812,3.673 12.415,3.859 12.834,4.211C13.441,4.721 13.82,5.429 14.125,6.141C14.42,6.829 14.12,7.636 13.455,7.942C12.79,8.247 12.011,7.936 11.716,7.248C11.58,6.931 11.459,6.584 11.196,6.35Z" style="fill:white;"/>
            </g>
            <path d="M13.477,5.175C13.568,4.8 13.657,4.481 13.747,4.264C13.904,3.885 14.372,3.163 14.524,2.951C14.543,2.903 14.778,2.37 16.334,1.291C17.15,0.726 18.474,0.686 19.469,0.811C22.354,1.171 24.364,3.737 24.291,6.567C24.249,8.2 23.642,9.64 22.832,11.022C21.513,13.272 19.68,15.239 17.717,16.946C16.8,17.744 15.742,18.652 15.201,19.755C15.072,20.021 14.979,20.308 14.882,20.587C14.876,20.604 14.834,20.705 14.803,20.776C14.78,20.865 14.747,20.953 14.704,21.038C14.37,21.706 13.556,21.978 12.888,21.643C12.561,21.48 12.083,21.116 12.141,20.324C12.149,20.213 12.354,19.623 12.354,19.623C12.354,19.623 12.33,19.685 12.324,19.702C12.456,19.32 12.592,18.929 12.769,18.565C13.463,17.147 14.762,15.928 15.94,14.903C17.684,13.387 19.325,11.651 20.496,9.653C21.073,8.669 21.555,7.66 21.585,6.497C21.622,5.037 20.622,3.683 19.133,3.497C18.863,3.463 18.545,3.431 18.239,3.45C18.108,3.458 17.973,3.45 17.877,3.516C16.763,4.289 16.842,4.376 16.701,4.561C16.633,4.65 16.341,5.077 16.249,5.299C15.862,6.235 15.465,9.059 14.993,10.136C14.709,10.787 14.209,10.922 13.837,10.945C13.525,10.965 13.064,10.92 12.678,10.417C12.66,10.394 12.481,10.188 12.405,9.759C12.343,9.407 11.929,7.213 11.9,7.055C11.607,6.431 11.832,5.673 12.438,5.316C12.764,5.124 13.138,5.084 13.477,5.175Z" style="fill:white;"/>
        </g>
    </g>
</svg>
