<?xml version="1.0" encoding="UTF-8" standalone="no"?>
<!DOCTYPE svg PUBLIC "-//W3C//DTD SVG 1.1//EN" "http://www.w3.org/Graphics/SVG/1.1/DTD/svg11.dtd">
<svg width="100%" height="100%" viewBox="0 0 94 300" version="1.1" xmlns="http://www.w3.org/2000/svg" xmlns:xlink="http://www.w3.org/1999/xlink" xml:space="preserve" xmlns:serif="http://www.serif.com/" style="fill-rule:evenodd;clip-rule:evenodd;stroke-linejoin:round;stroke-miterlimit:2;">
    <g transform="matrix(1,0,0,1,-2016.24,-800.496)">
        <g transform="matrix(-0.164772,0,0,1,2276.97,-45.4633)">
            <path d="M1582.33,845.959C1582.33,845.959 1199.57,845.959 1062.39,845.959C1049.6,845.959 1037.35,846.796 1028.31,848.285C1019.27,849.774 1014.19,851.794 1014.19,853.9C1014.19,896.254 1014.19,1095.22 1014.19,1137.58C1014.19,1139.68 1019.27,1141.7 1028.31,1143.19C1037.35,1144.68 1049.6,1145.52 1062.39,1145.52C1199.57,1145.52 1582.33,1145.52 1582.33,1145.52L1582.33,845.959Z" style="fill:rgb(235,235,235);"/>
        </g>
    </g>
</svg>
