<?xml version="1.0" encoding="UTF-8" standalone="no"?>
<!DOCTYPE svg PUBLIC "-//W3C//DTD SVG 1.1//EN" "http://www.w3.org/Graphics/SVG/1.1/DTD/svg11.dtd">
<svg width="100%" height="100%" viewBox="0 0 57 57" version="1.1" xmlns="http://www.w3.org/2000/svg" xmlns:xlink="http://www.w3.org/1999/xlink" xml:space="preserve" xmlns:serif="http://www.serif.com/" style="fill-rule:evenodd;clip-rule:evenodd;stroke-linejoin:round;stroke-miterlimit:2;">
    <g transform="matrix(1,0,0,1,-308.207,0)">
        <g id="Small-Logo" serif:id="Small Logo" transform="matrix(0.671535,0,0,0.496809,95.6712,0)">
            <rect x="316.493" y="0" width="84.423" height="114.114" style="fill:none;"/>
            <g transform="matrix(1,0,0,1,0.887258,-1.43021e-14)">
                <g transform="matrix(1.9416,2.05154e-16,-2.93703e-17,0.760188,254.433,-42.9942)">
                    <rect x="37.398" y="75.321" width="4.348" height="112.585"/>
                </g>
                <g transform="matrix(1.02206e-16,-1.31223,0.546633,1.21359e-16,285.873,148.925)">
                    <rect x="37.398" y="75.321" width="4.348" height="112.585"/>
                </g>
                <g transform="matrix(1,0,0,1,-6.65224,0.444443)">
                    <g transform="matrix(1.29708e-16,-2.62446,0.138308,1.63678e-16,364.374,123.826)">
                        <rect x="37.398" y="75.321" width="4.348" height="112.585"/>
                    </g>
                    <g transform="matrix(7.02638e-17,-1.31223,0.138308,8.75625e-17,364.374,137.08)">
                        <rect x="37.398" y="75.321" width="4.348" height="112.585"/>
                    </g>
                    <g>
                        <g transform="matrix(0.970801,3.93437e-17,-5.63107e-17,0.502945,351.547,-12.2068)">
                            <rect x="37.398" y="75.321" width="4.348" height="12.479"/>
                        </g>
                        <g transform="matrix(0.970801,3.93437e-17,-5.63107e-17,0.502945,336.773,-12.2068)">
                            <rect x="37.398" y="75.321" width="4.348" height="12.479"/>
                        </g>
                    </g>
                    <g transform="matrix(1,0,0,1,8.52651e-14,50.3479)">
                        <g transform="matrix(0.970801,3.93437e-17,-5.63107e-17,0.502945,351.547,-12.2068)">
                            <rect x="37.398" y="75.321" width="4.348" height="12.479"/>
                        </g>
                        <g transform="matrix(0.970801,3.93437e-17,-5.63107e-17,0.502945,336.773,-12.2068)">
                            <rect x="37.398" y="75.321" width="4.348" height="12.479"/>
                        </g>
                    </g>
                    <g transform="matrix(0.970801,3.06222e-17,-5.63107e-17,0.391455,333.608,2.46682)">
                        <rect x="37.398" y="75.321" width="4.348" height="112.585"/>
                    </g>
                    <g transform="matrix(0.970801,3.06222e-17,-5.63107e-17,0.391455,354.713,2.46682)">
                        <rect x="37.398" y="75.321" width="4.348" height="112.585"/>
                    </g>
                </g>
                <g transform="matrix(1.00603,0,0,1.00603,-6.24968,-0.0859719)">
                    <g transform="matrix(0.970801,5.12371e-17,-5.63107e-17,0.654982,307.602,-35.07)">
                        <path d="M37.398,78.466L37.398,75.321L41.71,75.321L37.398,78.466Z"/>
                    </g>
                    <g transform="matrix(0.970801,5.12371e-17,-5.63107e-17,0.654982,307.602,-35.07)">
                        <path d="M41.71,75.321L41.746,75.321L41.746,75.522L41.71,75.321Z"/>
                    </g>
                    <g transform="matrix(0.970801,5.12371e-17,-5.63107e-17,0.654982,307.602,-35.07)">
                        <path d="M41.746,126.462L41.746,187.906L37.398,187.906L37.398,102.528L41.746,126.462Z"/>
                    </g>
                    <g transform="matrix(1.82451,-0.897618,0.19235,0.714343,257.44,-2.06879)">
                        <path d="M37.398,173.087L37.398,116.748L41.746,75.505L41.746,178.551L37.398,173.087Z"/>
                    </g>
                    <g transform="matrix(1.82451,-0.897618,0.19235,0.714343,257.44,-2.06879)">
                        <path d="M37.398,94.803L39.452,75.321L41.746,75.321L41.746,75.505L37.398,116.748L37.398,94.803Z"/>
                    </g>
                </g>
            </g>
        </g>
    </g>
</svg>
