<?xml version="1.0" encoding="UTF-8" standalone="no"?>
<!DOCTYPE svg PUBLIC "-//W3C//DTD SVG 1.1//EN" "http://www.w3.org/Graphics/SVG/1.1/DTD/svg11.dtd">
<svg width="100%" height="100%" viewBox="0 0 284 284" version="1.1" xmlns="http://www.w3.org/2000/svg" xmlns:xlink="http://www.w3.org/1999/xlink" xml:space="preserve" xmlns:serif="http://www.serif.com/" style="fill-rule:evenodd;clip-rule:evenodd;stroke-linejoin:round;stroke-miterlimit:2;">
    <g id="Main-Logo" serif:id="Main Logo" transform="matrix(2.91125,0,0,2.98908,917.791,-122.255)">
        <rect x="-315.257" y="40.901" width="97.369" height="94.834" style="fill:none;"/>
        <g transform="matrix(1.13003,0,0,1.13003,33.6674,-9.64932)">
            <g transform="matrix(1.58902,0,0,0.49782,-356.999,18.8443)">
                <rect x="37.398" y="75.321" width="4.348" height="112.585"/>
            </g>
            <g transform="matrix(1,0,0,1,-3.25792,0)">
                <g transform="matrix(0.559835,0,0,0.394779,-298.621,26.6055)">
                    <path d="M37.398,77.507L37.398,75.321L41.746,75.321L37.398,77.507Z"/>
                </g>
                <g transform="matrix(0.559835,0,0,0.394779,-298.621,26.6055)">
                    <path d="M41.746,116.381L41.746,187.906L37.398,187.906L37.398,99.881L41.746,116.381Z"/>
                </g>
                <g transform="matrix(1.23016,-0.436083,0.172629,0.461946,-352.232,21.8791)">
                    <path d="M41.746,183.538L41.746,187.906L37.398,187.906L37.398,179.433L41.746,183.538Z"/>
                </g>
                <g transform="matrix(1.23016,-0.436083,0.172629,0.461946,-339.608,39.7513)">
                    <path d="M37.398,92.205L39.768,75.321L41.746,75.321L37.398,106.306L37.398,92.205Z"/>
                </g>
                <g transform="matrix(1.23016,-0.436083,0.172629,0.461946,-339.608,39.7513)">
                    <path d="M41.746,75.321L41.746,171.536L37.398,167.432L37.398,106.306L41.746,75.321Z"/>
                </g>
            </g>
            <g transform="matrix(1.39628e-18,0.564075,-0.126233,-1.00441e-18,-276.287,35.2454)">
                <rect x="37.398" y="75.321" width="4.348" height="112.585"/>
            </g>
            <g transform="matrix(-9.6356e-17,0.564075,-0.329567,4.73651e-17,-238.079,89.1748)">
                <rect x="37.398" y="96.409" width="4.348" height="91.497"/>
            </g>
            <g>
                <g transform="matrix(0.57156,2.76113e-17,-8.6459e-18,0.102312,-285.759,97.8222)">
                    <rect x="37.398" y="75.321" width="4.348" height="112.585"/>
                </g>
                <g transform="matrix(-1.29194,-3.22679e-16,2.89142e-17,-0.233011,-215.844,135.837)">
                    <path d="M41.746,109.722L41.746,109.82L37.398,118.48L37.398,109.722L41.746,109.722Z"/>
                </g>
                <g transform="matrix(-4.06069e-16,1.27502,-0.236103,-4.28034e-17,-238.478,63.813)">
                    <path d="M41.746,109.722L41.746,109.82L37.398,118.48L37.398,109.722L41.746,109.722Z"/>
                </g>
                <g transform="matrix(-1.30911,-3.22679e-16,2.92985e-17,-0.233011,-215.202,135.837)">
                    <rect x="37.398" y="99.196" width="4.348" height="10.526"/>
                </g>
            </g>
            <g transform="matrix(4.11465e-16,1.27502,0.23924,-4.28034e-17,-316.913,11.1099)">
                <path d="M41.746,109.722L41.746,109.82L37.398,118.48L37.398,109.722L41.746,109.722Z"/>
            </g>
            <g transform="matrix(2.85534,0,0,4.54012,-413.351,-432.838)">
                <g transform="matrix(19.4074,0,0,19.4074,64.5074,120.164)">
                </g>
                <text x="52.866px" y="120.164px" style="font-family:'PPMondwest-Bold', 'PP Mondwest';font-weight:700;font-size:19.407px;">0</text>
            </g>
        </g>
    </g>
</svg>
