<?xml version="1.0" encoding="UTF-8" standalone="no"?>
<!DOCTYPE svg PUBLIC "-//W3C//DTD SVG 1.1//EN" "http://www.w3.org/Graphics/SVG/1.1/DTD/svg11.dtd">
<svg width="100%" height="100%" viewBox="0 0 29 29" version="1.1" xmlns="http://www.w3.org/2000/svg" xmlns:xlink="http://www.w3.org/1999/xlink" xml:space="preserve" xmlns:serif="http://www.serif.com/" style="fill-rule:evenodd;clip-rule:evenodd;stroke-linejoin:round;stroke-miterlimit:2;">
    <g transform="matrix(1.40052,0,0,1.42163,-9.49647,-6.63945)">
        <path d="M18.959,6.282C18.959,6.282 19.366,8.051 19.366,8.051C19.542,8.115 19.716,8.186 19.886,8.263L21.444,7.296C22.127,6.871 23.015,6.952 23.608,7.492C23.798,7.665 23.981,7.845 24.156,8.032C24.705,8.617 24.786,9.491 24.356,10.164C24.356,10.164 23.373,11.699 23.373,11.698C23.452,11.866 23.524,12.037 23.589,12.211L25.385,12.612C26.173,12.788 26.742,13.463 26.774,14.258C26.784,14.513 26.784,14.768 26.774,15.022C26.742,15.817 26.173,16.492 25.385,16.668C25.385,16.668 23.589,17.069 23.589,17.069C23.524,17.243 23.452,17.414 23.374,17.581L24.356,19.116C24.786,19.789 24.705,20.663 24.156,21.248C23.981,21.435 23.798,21.615 23.608,21.788C23.015,22.328 22.127,22.409 21.444,21.984C21.444,21.984 19.886,21.017 19.887,21.017C19.716,21.094 19.542,21.165 19.366,21.229L18.959,22.998C18.781,23.774 18.096,24.336 17.289,24.367C17.03,24.377 16.771,24.377 16.513,24.367C15.706,24.336 15.02,23.774 14.842,22.998C14.842,22.998 14.435,21.229 14.435,21.229C14.259,21.165 14.085,21.094 13.915,21.017L12.357,21.984C11.674,22.409 10.786,22.328 10.193,21.788C10.003,21.615 9.82,21.435 9.645,21.248C9.096,20.663 9.015,19.789 9.446,19.116C9.446,19.116 10.428,17.581 10.428,17.582C10.349,17.414 10.277,17.243 10.212,17.069L8.416,16.668C7.629,16.492 7.059,15.817 7.027,15.022C7.017,14.768 7.017,14.513 7.027,14.258C7.059,13.463 7.629,12.788 8.416,12.612C8.416,12.612 10.212,12.211 10.212,12.211C10.277,12.037 10.349,11.866 10.428,11.699L9.446,10.164C9.015,9.491 9.096,8.617 9.645,8.032C9.82,7.845 10.003,7.665 10.193,7.492C10.786,6.952 11.674,6.871 12.357,7.296C12.357,7.296 13.915,8.263 13.915,8.263C14.085,8.186 14.259,8.115 14.435,8.051L14.842,6.282C15.02,5.506 15.706,4.944 16.513,4.913C16.771,4.903 17.03,4.903 17.289,4.913C18.096,4.944 18.781,5.506 18.959,6.282ZM17.218,6.67C17.007,6.662 16.795,6.662 16.583,6.67L15.941,9.462C15.195,9.596 14.486,9.885 13.863,10.31L11.405,8.783C11.249,8.925 11.099,9.073 10.956,9.226L12.505,11.647C12.074,12.262 11.78,12.959 11.644,13.694L8.811,14.327C8.803,14.536 8.803,14.744 8.811,14.953L11.644,15.586C11.78,16.321 12.074,17.018 12.505,17.633L10.956,20.054C11.099,20.207 11.249,20.355 11.405,20.497L13.863,18.97C14.486,19.395 15.195,19.684 15.941,19.818L16.583,22.61C16.795,22.618 17.007,22.618 17.218,22.61L17.861,19.818C18.606,19.684 19.315,19.395 19.939,18.97L22.396,20.497C22.552,20.355 22.702,20.207 22.846,20.054L21.296,17.633C21.727,17.018 22.021,16.321 22.157,15.586L24.99,14.953C24.999,14.744 24.999,14.536 24.99,14.327L22.157,13.694C22.021,12.959 21.727,12.262 21.296,11.647L22.846,9.226C22.702,9.073 22.552,8.925 22.396,8.783L19.939,10.31C19.315,9.885 18.606,9.596 17.861,9.462L17.218,6.67ZM16.901,10.493C19.224,10.493 21.11,12.351 21.11,14.64C21.11,16.929 19.224,18.787 16.901,18.787C14.577,18.787 12.691,16.929 12.691,14.64C12.691,12.351 14.577,10.493 16.901,10.493ZM16.901,12.251C15.562,12.251 14.476,13.322 14.476,14.64C14.476,15.958 15.562,17.029 16.901,17.029C18.239,17.029 19.325,15.958 19.325,14.64C19.325,13.322 18.239,12.251 16.901,12.251Z" style="fill:white;"/>
    </g>
</svg>
